<?xml version="1.0" encoding="UTF-8" standalone="no"?>
<!-- Created with Inkscape (http://www.inkscape.org/) -->

<svg
   xmlns:dc="http://purl.org/dc/elements/1.1/"
   xmlns:cc="http://creativecommons.org/ns#"
   xmlns:rdf="http://www.w3.org/1999/02/22-rdf-syntax-ns#"
   xmlns:svg="http://www.w3.org/2000/svg"
   xmlns="http://www.w3.org/2000/svg"
   xmlns:sodipodi="http://sodipodi.sourceforge.net/DTD/sodipodi-0.dtd"
   xmlns:inkscape="http://www.inkscape.org/namespaces/inkscape"
   width="744.09448819"
   height="1052.3622047"
   id="svg2"
   version="1.1"
   inkscape:version="0.47pre4 r22446"
   sodipodi:docname="New document 1">
  <defs
     id="defs4">
    <inkscape:perspective
       sodipodi:type="inkscape:persp3d"
       inkscape:vp_x="0 : 526.18109 : 1"
       inkscape:vp_y="0 : 1000 : 0"
       inkscape:vp_z="744.09448 : 526.18109 : 1"
       inkscape:persp3d-origin="372.04724 : 350.78739 : 1"
       id="perspective10" />
  </defs>
  <sodipodi:namedview
     id="base"
     pagecolor="#ffffff"
     bordercolor="#666666"
     borderopacity="1.0"
     inkscape:pageopacity="0.0"
     inkscape:pageshadow="2"
     inkscape:zoom="1.4"
     inkscape:cx="252.19581"
     inkscape:cy="504.71621"
     inkscape:document-units="px"
     inkscape:current-layer="layer1"
     showgrid="false"
     inkscape:window-width="1280"
     inkscape:window-height="748"
     inkscape:window-x="0"
     inkscape:window-y="25"
     inkscape:window-maximized="1" />
  <metadata
     id="metadata7">
    <rdf:RDF>
      <cc:Work
         rdf:about="">
        <dc:format>image/svg+xml</dc:format>
        <dc:type
           rdf:resource="http://purl.org/dc/dcmitype/StillImage" />
        <dc:title></dc:title>
      </cc:Work>
    </rdf:RDF>
  </metadata>
  <g
     inkscape:label="Layer 1"
     inkscape:groupmode="layer"
     id="layer1">
    <rect
       style="fill:#ff0000;fill-opacity:1;stroke:#ff0000;stroke-width:1.60660839;stroke-opacity:1"
       id="rect2816"
       width="36.022362"
       height="329.39471"
       x="284.58966"
       y="387.66483"
       ry="21.130981" />
    <path
       sodipodi:type="arc"
       style="fill:#0300ed;fill-opacity:1;stroke:#0300ed;stroke-opacity:1"
       id="path2818"
       sodipodi:cx="438.57144"
       sodipodi:cy="460.93362"
       sodipodi:rx="12.857142"
       sodipodi:ry="12.857142"
       d="m 451.42858,460.93362 a 12.857142,12.857142 0 1 1 -25.71428,0 12.857142,12.857142 0 1 1 25.71428,0 z"
       transform="matrix(1.4815649,0,0,1.846956,-260.29379,-365.61777)" />
    <path
       style="fill:#0300ed;fill-opacity:1;stroke:#0300ed;stroke-width:1.60660839px;stroke-linecap:butt;stroke-linejoin:miter;stroke-opacity:1"
       d="m 392.65671,462.24475 3.17843,45.99098 c 19.80483,-13.21511 35.28813,-33.19032 46.61719,-59.66396 -19.92123,-1.99578 -21.37852,33.11775 -49.79562,13.67298 z"
       id="path3592"
       sodipodi:nodetypes="cccc" />
    <path
       sodipodi:type="star"
       style="fill:#ff0000;fill-opacity:1;stroke:#ff0000;stroke-opacity:1"
       id="path3604"
       sodipodi:sides="5"
       sodipodi:cx="123.57143"
       sodipodi:cy="493.79074"
       sodipodi:r1="19.019323"
       sodipodi:r2="9.5096617"
       sodipodi:arg1="0.97237743"
       sodipodi:arg2="1.600696"
       inkscape:flatsided="false"
       inkscape:rounded="0"
       inkscape:randomized="0"
       d="m 134.28571,509.50503 -10.99858,-6.20888 -11.34998,5.54046 2.50624,-12.37891 -8.77663,-9.08238 12.54752,-1.44172 5.92573,-11.15368 5.24856,11.48789 12.43893,2.18902 -9.30374,8.54162 1.76195,12.50658 z"
       transform="matrix(0.8273823,0,0,0.79967612,338.14666,54.302177)" />
    <g
       id="g3600"
       transform="matrix(1.4832737,0,0,1.7401984,-100.26694,-268.70951)">
      <rect
         ry="0"
         y="407.66812"
         x="359.59167"
         height="9.5666676"
         width="10.280934"
         id="rect3598"
         style="fill:#ff0000;fill-opacity:1;stroke:#ff0000;stroke-width:0.89763242;stroke-opacity:1" />
      <path
         transform="matrix(0.93143451,0,0,0.97295286,-1.3487712,0.72872531)"
         d="m 399.28571,423.07648 c 0,3.15591 -2.75824,5.71428 -6.16071,5.71428 -3.40247,0 -6.16071,-2.55837 -6.16071,-5.71428 0,-3.15592 2.75824,-5.71429 6.16071,-5.71429 3.40247,0 6.16071,2.55837 6.16071,5.71429 z"
         sodipodi:ry="5.7142859"
         sodipodi:rx="6.1607141"
         sodipodi:cy="423.07648"
         sodipodi:cx="393.125"
         id="path3594"
         style="fill:#ff0000;fill-opacity:1;stroke:#ff0000;stroke-opacity:1"
         sodipodi:type="arc" />
    </g>
  </g>
</svg>
